<svg width="24" height="24" viewBox="0 0 24 24" fill="none" xmlns="http://www.w3.org/2000/svg">
<path d="M23.9657 12.0204C23.9657 13.9587 23.9828 15.8885 23.9657 17.8269C23.9314 21.3176 21.3841 23.925 17.8933 23.9678C13.9652 24.0107 10.0284 24.0107 6.10024 23.9678C2.60091 23.925 0.0364514 21.3262 0.0192978 17.8354C-0.00643259 13.933 -0.00643259 10.0306 0.0192978 6.13669C0.0450281 2.6974 2.59233 0.0814795 6.0402 0.0385955C10.0027 -0.0128652 13.9652 -0.0128652 17.9276 0.0385955C21.4098 0.0900563 23.94 2.72313 23.9743 6.22246C23.9828 8.15224 23.9657 10.0906 23.9657 12.0204ZM16.5125 19.4307C17.3873 19.4307 18.1077 19.4736 18.811 19.405C19.034 19.3793 19.3943 19.0276 19.3943 18.8303C19.3943 16.6518 19.3857 14.4648 19.257 12.2862C19.1627 10.6995 18.022 9.69606 16.4353 9.56741C15.0716 9.45591 13.7936 9.61887 12.7644 10.811C12.7387 10.3136 12.7129 9.97909 12.6958 9.61029C11.8381 9.61029 11.0147 9.61029 10.1485 9.61029C10.1485 12.8866 10.1485 16.1115 10.1485 19.3707C11.0919 19.3707 11.9753 19.3707 12.9188 19.3707C12.9188 18.0584 12.9016 16.8148 12.9274 15.5626C12.9445 14.8164 12.9788 14.0702 13.0903 13.3412C13.2447 12.3892 13.888 11.9946 14.8228 12.0032C15.7749 12.0118 16.2466 12.5779 16.3924 13.4184C16.4953 13.993 16.4867 14.5934 16.4953 15.1852C16.521 16.5489 16.5125 17.9212 16.5125 19.4307ZM4.54784 9.58456C4.54784 12.1061 4.54784 14.5248 4.54784 16.952C4.54784 19.4736 4.54784 19.4479 7.1123 19.4479C7.80702 19.4479 8.03002 19.2506 8.02144 18.5473C7.98713 15.8027 8.00429 13.0667 8.00429 10.3222C8.00429 10.082 7.9614 9.84187 7.93567 9.58456C6.80354 9.58456 5.74859 9.58456 4.54784 9.58456ZM7.99571 6.26534C8.00429 5.37336 7.16376 4.52426 6.2632 4.51568C5.37121 4.51568 4.52211 5.34763 4.51354 6.24819C4.50496 7.14875 5.32833 7.98928 6.24605 7.98928C7.14661 7.99786 7.97856 7.17448 7.99571 6.26534Z" fill="white"/>
</svg>
