<svg width="45" height="45" viewBox="0 0 45 45" fill="none" xmlns="http://www.w3.org/2000/svg">
<path d="M44.9794 22.5382C44.9794 26.1726 45.0116 29.7909 44.9794 33.4254C44.915 39.9705 40.1342 44.8593 33.5826 44.9397C26.2101 45.0201 18.8216 45.0201 11.4491 44.9397C4.88145 44.8593 0.0684128 39.9866 0.0362185 33.4414C-0.0120728 26.1244 -0.0120728 18.8073 0.0362185 11.5063C0.0845099 5.05762 4.86536 0.152774 11.3364 0.0723667C18.7733 -0.0241222 26.2101 -0.0241222 33.647 0.0723667C40.1825 0.168856 44.9311 5.10587 44.9955 11.6671C45.0116 15.2854 44.9794 18.9199 44.9794 22.5382ZM30.991 36.4326C32.6329 36.4326 33.9851 36.513 35.305 36.3843C35.7236 36.3361 36.3996 35.6768 36.3996 35.3069C36.3996 31.2222 36.3835 27.1214 36.1421 23.0367C35.965 20.0616 33.8241 18.1801 30.8461 17.9389C28.2867 17.7298 25.8882 18.0354 23.9565 20.2707C23.9083 19.338 23.86 18.7108 23.8278 18.0193C22.2181 18.0193 20.6727 18.0193 19.0469 18.0193C19.0469 24.1624 19.0469 30.2091 19.0469 36.32C20.8176 36.32 22.4756 36.32 24.2463 36.32C24.2463 33.8596 24.2141 31.5277 24.2624 29.1798C24.2946 27.7808 24.359 26.3817 24.5682 25.0147C24.858 23.2297 26.0653 22.4899 27.8199 22.506C29.6066 22.5221 30.492 23.5835 30.7656 25.1595C30.9588 26.2369 30.9427 27.3626 30.9588 28.4723C31.0071 31.0292 30.991 33.6023 30.991 36.4326ZM8.5355 17.9711C8.5355 22.699 8.5355 27.234 8.5355 31.785C8.5355 36.513 8.5355 36.4648 13.3485 36.4648C14.6524 36.4648 15.0709 36.0949 15.0548 34.7762C14.9904 29.6301 15.0226 24.5001 15.0226 19.3541C15.0226 18.9038 14.9422 18.4535 14.8939 17.9711C12.769 17.9711 10.7891 17.9711 8.5355 17.9711ZM15.0065 11.7475C15.0226 10.075 13.4451 8.48298 11.7549 8.4669C10.0808 8.4669 8.48721 10.0268 8.47112 11.7154C8.45502 13.4039 10.0003 14.9799 11.7227 14.9799C13.4129 14.996 14.9744 13.4522 15.0065 11.7475Z" fill="white"/>
</svg>
